<svg width="683" height="683" viewBox="0 0 683 683" fill="none" xmlns="http://www.w3.org/2000/svg">
<path d="M74.1445 463.538C75.5301 461.262 81.3973 451.089 87.1826 440.931C92.9679 430.774 99.844 419.025 102.463 414.822C105.082 410.619 111.798 399.156 117.387 389.349C122.977 379.542 130.122 367.22 133.265 361.966C141.418 348.34 160.857 314.968 174.048 291.953C180.26 281.115 185.82 271.658 186.403 270.938C186.986 270.217 193.749 258.738 201.433 245.429C228.878 197.887 242.043 175.303 245.236 170.285C247.019 167.483 252.668 157.739 257.789 148.633C262.91 139.526 268.089 130.643 269.298 128.892C270.507 127.14 277.957 114.531 285.854 100.872C317.139 46.7561 327.778 28.4767 333.843 18.4165L340.171 7.92151L349.733 24.1478C377.568 71.3863 377.844 71.9291 375.82 75.399C374.799 77.1503 368.816 87.7532 362.525 98.9612C356.234 110.169 348.517 123.638 345.377 128.892C342.236 134.145 334.774 147.041 328.795 157.548C322.815 168.056 314.639 182.384 310.626 189.389C306.613 196.394 296.664 213.767 288.517 227.996C280.369 242.225 269.616 260.852 264.621 269.389C259.625 277.926 250.668 293.508 244.715 304.016C231.529 327.292 215.468 355.33 201.671 379.16C176.735 422.23 162.352 447.397 157.091 457.169L151.435 467.675L111.53 467.676L71.6251 467.677L74.1445 463.538Z" fill="white"/>
<path d="M98.6615 619.558C100.246 616.931 107.67 604.179 115.159 591.22C122.648 578.261 135.816 555.622 144.421 540.911C169.639 497.801 185.318 470.843 196.644 451.12C202.478 440.963 210.227 427.781 213.865 421.827C217.503 415.873 224.661 403.55 229.77 394.444C234.88 385.337 240.124 376.329 241.424 374.426C243.588 371.258 251.53 357.641 283.608 302.105C289.879 291.248 299.137 275.487 304.18 267.081C309.222 258.675 315.844 247.212 318.895 241.608C321.945 236.004 325.963 229.126 327.822 226.324C329.682 223.522 336.264 212.346 342.449 201.489C348.633 190.631 357.475 175.346 362.096 167.521C366.718 159.697 376.762 142.646 384.416 129.631C392.07 116.615 398.723 105.966 399.2 105.966C400.298 105.966 406.147 115.519 419.865 139.717C425.822 150.225 437.816 171.144 446.519 186.205C455.221 201.266 466.263 220.466 471.057 228.872C475.85 237.278 483.326 250.173 487.67 257.528C492.014 264.884 499.754 278.352 504.87 287.459C509.987 296.565 515.62 306.309 517.388 309.11C519.156 311.912 526.153 323.948 532.936 335.857C550.458 366.616 563.337 389.002 576.17 411.001C582.299 421.508 589.504 434.117 592.182 439.021C594.86 443.924 599.812 452.378 603.187 457.807L609.323 467.678H562.856H516.389L514.656 464.812C512.401 461.082 501.125 440.784 485.823 412.911C479.094 400.653 471.531 387.184 469.017 382.981C466.503 378.778 459.277 365.883 452.957 354.324C437.399 325.867 430.546 313.53 413.682 283.626C405.779 269.61 398.929 257.144 398.461 255.925C397.05 252.248 395.771 253.315 390.812 262.305C388.203 267.033 381.362 278.925 375.609 288.732C369.856 298.539 361.735 312.581 357.561 319.936C344.178 343.523 329.029 369.76 318.219 388.076C312.431 397.883 304.059 412.322 299.615 420.164C295.17 428.005 284.298 446.919 275.453 462.194C266.609 477.469 256.083 495.698 252.063 502.703C248.042 509.707 239.722 524.036 233.574 534.543C227.426 545.051 219.521 558.856 216.007 565.222C212.493 571.587 207.67 579.898 205.287 583.689C202.905 587.481 196.691 598.175 191.479 607.454L182.002 624.326L138.891 624.329L95.7802 624.333L98.6615 619.558Z" fill="white"/>
<path d="M320.56 470.543C320.846 470.018 325.683 461.851 331.31 452.394C349.175 422.369 370.555 385.918 377.252 374.066C387.488 355.95 386.024 356.259 393.939 370.552C397.724 377.388 403.506 387.566 406.788 393.17C410.069 398.774 417.659 412.243 423.655 423.101C429.65 433.958 438.053 449.056 442.329 456.652C446.604 464.247 450.102 470.695 450.102 470.98C450.102 471.265 420.838 471.499 385.071 471.499C349.304 471.499 320.274 471.069 320.56 470.543Z" fill="white"/>
<path d="M316.476 545L313.688 536.16H297.028L294.376 545H282.544L297.504 498.216H313.552L328.512 545H316.476ZM305.46 508.688H305.12L299.748 526.572H310.9L305.46 508.688Z" fill="white"/>
<path d="M333.23 545V494.476H344.314V545H333.23Z" fill="white"/>
<path d="M352.621 510.32H363.025L363.297 514.468H363.909C364.861 512.7 366.175 511.476 367.853 510.796C369.53 510.116 371.479 509.776 373.701 509.776C376.511 509.776 378.71 510.297 380.297 511.34C381.929 512.383 383.13 514.196 383.901 516.78C384.671 519.319 385.057 522.9 385.057 527.524C385.057 532.193 384.671 535.82 383.901 538.404C383.175 540.988 381.997 542.824 380.365 543.912C378.778 544.955 376.579 545.476 373.769 545.476C371.457 545.476 369.507 545.204 367.921 544.66C366.379 544.071 365.11 542.96 364.113 541.328H363.569V558.532H352.621V510.32ZM368.805 536.228C370.573 536.228 371.797 536.069 372.477 535.752C373.157 535.435 373.587 534.732 373.769 533.644C373.995 532.511 374.109 530.516 374.109 527.66C374.109 524.804 373.995 522.832 373.769 521.744C373.587 520.611 373.157 519.885 372.477 519.568C371.797 519.205 370.573 519.024 368.805 519.024C367.445 519.024 366.425 519.183 365.745 519.5C365.065 519.817 364.566 520.384 364.249 521.2C363.977 521.835 363.795 522.651 363.705 523.648C363.614 524.645 363.569 525.983 363.569 527.66C363.569 529.383 363.591 530.743 363.637 531.74C363.727 532.692 363.909 533.44 364.181 533.984C364.498 534.845 364.997 535.435 365.677 535.752C366.357 536.069 367.399 536.228 368.805 536.228Z" fill="white"/>
<path d="M413.007 526.708C413.007 524.169 412.893 522.401 412.667 521.404C412.485 520.407 412.1 519.772 411.511 519.5C410.921 519.228 409.833 519.092 408.247 519.092C406.705 519.092 405.572 519.319 404.847 519.772C404.167 520.18 403.713 520.905 403.487 521.948C403.26 522.991 403.147 524.645 403.147 526.912V545H392.199V494.476H403.147V514.332H403.691C404.643 512.7 405.935 511.544 407.567 510.864C409.244 510.139 411.216 509.776 413.483 509.776C416.429 509.776 418.651 510.297 420.147 511.34C421.688 512.337 422.708 513.788 423.207 515.692C423.705 517.551 423.955 520.089 423.955 523.308V545H413.007V526.708Z" fill="white"/>
<path d="M440.674 545.544C437.274 545.544 434.758 544.728 433.126 543.096C431.494 541.464 430.678 538.789 430.678 535.072C430.678 532.352 430.995 530.244 431.63 528.748C432.264 527.252 433.352 526.164 434.894 525.484C436.48 524.804 438.747 524.464 441.694 524.464C443.915 524.464 447.111 524.555 451.282 524.736V523.512C451.282 521.789 451.078 520.588 450.67 519.908C450.307 519.183 449.582 518.729 448.494 518.548C447.451 518.367 445.57 518.276 442.85 518.276C439.45 518.276 436.072 518.457 432.718 518.82V510.932C436.979 510.161 441.512 509.776 446.318 509.776C451.078 509.776 454.568 510.275 456.79 511.272C459.056 512.269 460.53 513.743 461.21 515.692C461.89 517.641 462.23 520.452 462.23 524.124V545H451.758L451.486 540.988H450.942C449.763 542.847 448.335 544.071 446.658 544.66C444.98 545.249 442.986 545.544 440.674 545.544ZM445.842 537.588C447.111 537.588 448.108 537.452 448.834 537.18C449.559 536.908 450.126 536.432 450.534 535.752C451.032 534.891 451.282 533.485 451.282 531.536V530.176H445.094C443.87 530.176 442.986 530.267 442.442 530.448C441.898 530.629 441.512 530.992 441.286 531.536C441.104 532.035 441.014 532.873 441.014 534.052C441.014 535.049 441.127 535.797 441.354 536.296C441.58 536.795 442.011 537.135 442.646 537.316C443.326 537.497 444.391 537.588 445.842 537.588Z" fill="white"/>
<path d="M488.573 498.216H510.809C514.98 498.216 518.131 498.828 520.261 500.052C522.392 501.276 523.797 502.999 524.477 505.22C525.203 507.441 525.565 510.411 525.565 514.128C525.565 517.619 525.225 520.475 524.545 522.696C523.911 524.917 522.505 526.685 520.329 528C518.199 529.315 515.025 529.972 510.809 529.972H500.405V545H488.573V498.216ZM505.913 520.52C508.316 520.52 510.039 520.384 511.081 520.112C512.124 519.795 512.804 519.228 513.121 518.412C513.439 517.551 513.597 516.123 513.597 514.128C513.597 512.133 513.439 510.728 513.121 509.912C512.804 509.051 512.124 508.484 511.081 508.212C510.084 507.895 508.361 507.736 505.913 507.736H500.405V520.52H505.913Z" fill="white"/>
<path d="M551.908 545.544C545.335 545.544 540.643 544.864 537.832 543.504C535.067 542.099 533.321 539.877 532.596 536.84C531.916 533.803 531.576 528.725 531.576 521.608C531.576 514.491 531.916 509.413 532.596 506.376C533.321 503.339 535.067 501.14 537.832 499.78C540.643 498.375 545.335 497.672 551.908 497.672C558.481 497.672 563.151 498.375 565.916 499.78C568.727 501.14 570.472 503.339 571.152 506.376C571.832 509.413 572.172 514.491 572.172 521.608C572.172 528.725 571.832 533.803 571.152 536.84C570.472 539.877 568.727 542.099 565.916 543.504C563.151 544.864 558.481 545.544 551.908 545.544ZM551.908 535.956C554.855 535.956 556.827 535.729 557.824 535.276C558.821 534.777 559.456 533.667 559.728 531.944C560 530.221 560.136 526.776 560.136 521.608C560.136 516.44 560 512.995 559.728 511.272C559.456 509.549 558.821 508.461 557.824 508.008C556.827 507.509 554.855 507.26 551.908 507.26C548.961 507.26 546.967 507.509 545.924 508.008C544.881 508.461 544.224 509.572 543.952 511.34C543.68 513.108 543.544 516.531 543.544 521.608C543.544 526.685 543.68 530.108 543.952 531.876C544.224 533.644 544.881 534.777 545.924 535.276C546.967 535.729 548.961 535.956 551.908 535.956Z" fill="white"/>
<path d="M598.014 545.544C591.395 545.544 585.525 545.159 580.402 544.388V535.14C585.933 535.684 590.602 535.956 594.41 535.956C596.631 535.956 598.331 535.865 599.51 535.684C600.689 535.503 601.527 535.208 602.026 534.8C602.479 534.437 602.751 534.007 602.842 533.508C602.978 532.964 603.046 532.216 603.046 531.264C603.046 530.131 602.955 529.315 602.774 528.816C602.593 528.317 602.23 527.977 601.686 527.796C601.142 527.569 600.19 527.365 598.83 527.184L590.194 526.096C587.111 525.733 584.754 524.963 583.122 523.784C581.535 522.56 580.447 520.996 579.858 519.092C579.314 517.188 579.042 514.808 579.042 511.952C579.042 507.917 579.79 504.857 581.286 502.772C582.782 500.687 584.777 499.327 587.27 498.692C589.809 498.012 593.027 497.672 596.926 497.672C599.782 497.672 602.389 497.785 604.746 498.012C607.149 498.239 609.755 498.601 612.566 499.1V508.144C607.171 507.555 602.751 507.26 599.306 507.26C595.679 507.26 593.322 507.532 592.234 508.076C591.645 508.348 591.259 508.733 591.078 509.232C590.942 509.731 590.874 510.433 590.874 511.34C590.874 512.473 590.942 513.289 591.078 513.788C591.259 514.241 591.599 514.581 592.098 514.808C592.642 514.989 593.571 515.171 594.886 515.352L604.814 516.576C606.809 516.803 608.441 517.211 609.71 517.8C611.025 518.389 612.113 519.387 612.974 520.792C614.289 522.741 614.946 525.847 614.946 530.108C614.946 534.551 614.243 537.905 612.838 540.172C611.433 542.393 609.551 543.844 607.194 544.524C604.837 545.204 601.777 545.544 598.014 545.544Z" fill="white"/>
</svg>
